<svg xmlns="http://www.w3.org/2000/svg" xmlns:xlink="http://www.w3.org/1999/xlink" contentStyleType="text/css" data-diagram-type="SEQUENCE" height="1372px" preserveAspectRatio="none" style="width:1430px;height:1372px;background:#FFFFFF;" version="1.1" viewBox="0 0 1430 1372" width="1430px" zoomAndPan="magnify"><defs/><g><rect fill="none" height="157.0625" style="stroke:#000000;stroke-width:1.5;" width="549.7705" x="448" y="819.0156"/><rect fill="none" height="90.2031" style="stroke:#000000;stroke-width:1.5;" width="693.8516" x="10" y="1033.2109"/><g><title>User (Browser)</title><rect fill="#000000" fill-opacity="0.00000" height="1210.7813" width="8" x="71.1616" y="81.2969"/><line style="stroke:#181818;stroke-width:0.5;stroke-dasharray:5.0,5.0;" x1="75" x2="75" y1="81.2969" y2="1292.0781"/></g><g><title>VYI (Verify Your Identity)</title><rect fill="#000000" fill-opacity="0.00000" height="1210.7813" width="8" x="596.3599" y="81.2969"/><line style="stroke:#181818;stroke-width:0.5;stroke-dasharray:5.0,5.0;" x1="599.8682" x2="599.8682" y1="81.2969" y2="1292.0781"/></g><g><title>Vouchsafe API</title><rect fill="#000000" fill-opacity="0.00000" height="1210.7813" width="8" x="926.9707" y="81.2969"/><line style="stroke:#181818;stroke-width:0.5;stroke-dasharray:5.0,5.0;" x1="930.1709" x2="930.1709" y1="81.2969" y2="1292.0781"/></g><g><title>ScotAccount</title><rect fill="#000000" fill-opacity="0.00000" height="1210.7813" width="8" x="1100.2715" y="81.2969"/><line style="stroke:#181818;stroke-width:0.5;stroke-dasharray:5.0,5.0;" x1="1103.5659" x2="1103.5659" y1="81.2969" y2="1292.0781"/></g><g><title>Relying Party (RP)</title><rect fill="#000000" fill-opacity="0.00000" height="1210.7813" width="8" x="1344.1797" y="81.2969"/><line style="stroke:#181818;stroke-width:0.5;stroke-dasharray:5.0,5.0;" x1="1347.8242" x2="1347.8242" y1="81.2969" y2="1292.0781"/></g><g class="participant participant-head" data-participant="User"><text fill="#000000" font-family="sans-serif" font-size="14" lengthAdjust="spacing" textLength="104.3232" x="20" y="77.9951">User (Browser)</text><ellipse cx="75.1616" cy="13.5" fill="#E2E2F0" rx="8" ry="8" style="stroke:#181818;stroke-width:0.5;"/><path d="M75.1616,21.5 L75.1616,48.5 M62.1616,29.5 L88.1616,29.5 M75.1616,48.5 L62.1616,63.5 M75.1616,48.5 L88.1616,63.5" fill="none" style="stroke:#181818;stroke-width:0.5;"/></g><g class="participant participant-tail" data-participant="User"><text fill="#000000" font-family="sans-serif" font-size="14" lengthAdjust="spacing" textLength="104.3232" x="20" y="1304.0732">User (Browser)</text><ellipse cx="75.1616" cy="1315.875" fill="#E2E2F0" rx="8" ry="8" style="stroke:#181818;stroke-width:0.5;"/><path d="M75.1616,1323.875 L75.1616,1350.875 M62.1616,1331.875 L88.1616,1331.875 M75.1616,1350.875 L62.1616,1365.875 M75.1616,1350.875 L88.1616,1365.875" fill="none" style="stroke:#181818;stroke-width:0.5;"/></g><g class="participant participant-head" data-participant="VYI"><rect fill="#E2E2F0" height="30.2969" rx="2.5" ry="2.5" style="stroke:#181818;stroke-width:0.5;" width="186.9834" x="506.8682" y="50"/><text fill="#000000" font-family="sans-serif" font-size="14" lengthAdjust="spacing" textLength="172.9834" x="513.8682" y="69.9951">VYI (Verify Your Identity)</text></g><g class="participant participant-tail" data-participant="VYI"><rect fill="#E2E2F0" height="30.2969" rx="2.5" ry="2.5" style="stroke:#181818;stroke-width:0.5;" width="186.9834" x="506.8682" y="1291.0781"/><text fill="#000000" font-family="sans-serif" font-size="14" lengthAdjust="spacing" textLength="172.9834" x="513.8682" y="1311.0732">VYI (Verify Your Identity)</text></g><g class="participant participant-head" data-participant="Vouchsafe"><rect fill="#E2E2F0" height="30.2969" rx="2.5" ry="2.5" style="stroke:#181818;stroke-width:0.5;" width="113.5996" x="874.1709" y="50"/><text fill="#000000" font-family="sans-serif" font-size="14" lengthAdjust="spacing" textLength="99.5996" x="881.1709" y="69.9951">Vouchsafe API</text></g><g class="participant participant-tail" data-participant="Vouchsafe"><rect fill="#E2E2F0" height="30.2969" rx="2.5" ry="2.5" style="stroke:#181818;stroke-width:0.5;" width="113.5996" x="874.1709" y="1291.0781"/><text fill="#000000" font-family="sans-serif" font-size="14" lengthAdjust="spacing" textLength="99.5996" x="881.1709" y="1311.0732">Vouchsafe API</text></g><g class="participant participant-head" data-participant="ScotAccount"><rect fill="#E2E2F0" height="30.2969" rx="2.5" ry="2.5" style="stroke:#181818;stroke-width:0.5;" width="101.4111" x="1053.5659" y="50"/><text fill="#000000" font-family="sans-serif" font-size="14" lengthAdjust="spacing" textLength="87.4111" x="1060.5659" y="69.9951">ScotAccount</text></g><g class="participant participant-tail" data-participant="ScotAccount"><rect fill="#E2E2F0" height="30.2969" rx="2.5" ry="2.5" style="stroke:#181818;stroke-width:0.5;" width="101.4111" x="1053.5659" y="1291.0781"/><text fill="#000000" font-family="sans-serif" font-size="14" lengthAdjust="spacing" textLength="87.4111" x="1060.5659" y="1311.0732">ScotAccount</text></g><g class="participant participant-head" data-participant="RP"><rect fill="#E2E2F0" height="30.2969" rx="2.5" ry="2.5" style="stroke:#181818;stroke-width:0.5;" width="140.7109" x="1277.8242" y="50"/><text fill="#000000" font-family="sans-serif" font-size="14" lengthAdjust="spacing" textLength="126.7109" x="1284.8242" y="69.9951">Relying Party (RP)</text></g><g class="participant participant-tail" data-participant="RP"><rect fill="#E2E2F0" height="30.2969" rx="2.5" ry="2.5" style="stroke:#181818;stroke-width:0.5;" width="140.7109" x="1277.8242" y="1291.0781"/><text fill="#000000" font-family="sans-serif" font-size="14" lengthAdjust="spacing" textLength="126.7109" x="1284.8242" y="1311.0732">Relying Party (RP)</text></g><rect fill="#EEEEEE" height="3" style="stroke:#EEEEEE;stroke-width:1;" width="1423.5352" x="0" y="111.8633"/><line style="stroke:#000000;stroke-width:1;" x1="0" x2="1423.5352" y1="111.8633" y2="111.8633"/><line style="stroke:#000000;stroke-width:1;" x1="0" x2="1423.5352" y1="114.8633" y2="114.8633"/><rect fill="#EEEEEE" height="23.1328" style="stroke:#000000;stroke-width:2;" width="243.874" x="589.8306" y="101.2969"/><text fill="#000000" font-family="sans-serif" font-size="13" font-weight="bold" lengthAdjust="spacing" textLength="225.3481" x="595.8306" y="117.3638">User Prompted for Verification</text><g class="message" data-participant-1="User" data-participant-2="VYI"><polygon fill="#181818" points="588.3599,151.5625,598.3599,155.5625,588.3599,159.5625,592.3599,155.5625" style="stroke:#181818;stroke-width:1;"/><line style="stroke:#181818;stroke-width:1;" x1="75.1616" x2="594.3599" y1="155.5625" y2="155.5625"/><text fill="#000000" font-family="sans-serif" font-size="13" lengthAdjust="spacing" textLength="176.0903" x="82.1616" y="150.4966">Access verification process</text></g><g class="message" data-participant-1="VYI" data-participant-2="User"><polygon fill="#181818" points="86.1616,180.6953,76.1616,184.6953,86.1616,188.6953,82.1616,184.6953" style="stroke:#181818;stroke-width:1;"/><line style="stroke:#181818;stroke-width:1;" x1="80.1616" x2="599.3599" y1="184.6953" y2="184.6953"/><text fill="#000000" font-family="sans-serif" font-size="13" lengthAdjust="spacing" textLength="501.1982" x="92.1616" y="179.6294">Display message: "Verify your identity by asking someone to vouch for you."</text></g><g class="message" data-participant-1="User" data-participant-2="VYI"><polygon fill="#181818" points="588.3599,209.8281,598.3599,213.8281,588.3599,217.8281,592.3599,213.8281" style="stroke:#181818;stroke-width:1;"/><line style="stroke:#181818;stroke-width:1;" x1="75.1616" x2="594.3599" y1="213.8281" y2="213.8281"/><text fill="#000000" font-family="sans-serif" font-size="13" lengthAdjust="spacing" textLength="194.6255" x="82.1616" y="208.7622">Click "Continue to Vouchsafe"</text></g><rect fill="#EEEEEE" height="3" style="stroke:#EEEEEE;stroke-width:1;" width="1423.5352" x="0" y="242.3945"/><line style="stroke:#000000;stroke-width:1;" x1="0" x2="1423.5352" y1="242.3945" y2="242.3945"/><line style="stroke:#000000;stroke-width:1;" x1="0" x2="1423.5352" y1="245.3945" y2="245.3945"/><rect fill="#EEEEEE" height="23.1328" style="stroke:#000000;stroke-width:2;" width="251.3579" x="586.0886" y="231.8281"/><text fill="#000000" font-family="sans-serif" font-size="13" font-weight="bold" lengthAdjust="spacing" textLength="232.832" x="592.0886" y="247.895">Vouchsafe Verification Creation</text><g class="message" data-participant-1="VYI" data-participant-2="Vouchsafe"><polygon fill="#181818" points="918.9707,282.0938,928.9707,286.0938,918.9707,290.0938,922.9707,286.0938" style="stroke:#181818;stroke-width:1;"/><line style="stroke:#181818;stroke-width:1;" x1="600.3599" x2="924.9707" y1="286.0938" y2="286.0938"/><text fill="#000000" font-family="sans-serif" font-size="13" lengthAdjust="spacing" textLength="178.4771" x="607.3599" y="281.0278">Request verification via API</text></g><path d="M935,299.0938 L935,369.0938 L1106,369.0938 L1106,309.0938 L1096,299.0938 L935,299.0938" fill="#FEFFDD" style="stroke:#181818;stroke-width:0.5;"/><path d="M1096,299.0938 L1096,309.0938 L1106,309.0938 L1096,299.0938" fill="#FEFFDD" style="stroke:#181818;stroke-width:0.5;"/><text fill="#000000" font-family="sans-serif" font-size="13" lengthAdjust="spacing" textLength="67.6597" x="941" y="316.1606">Data sent:</text><text fill="#000000" font-family="sans-serif" font-size="13" lengthAdjust="spacing" textLength="44.6748" x="941" y="331.2935">- email</text><text fill="#000000" font-family="sans-serif" font-size="13" lengthAdjust="spacing" textLength="85.4204" x="941" y="346.4263">- workflow_id</text><text fill="#000000" font-family="sans-serif" font-size="13" lengthAdjust="spacing" textLength="150.2744" x="941" y="361.5591">- redirect_url (optional)</text><g class="message" data-participant-1="Vouchsafe" data-participant-2="VYI"><polygon fill="#181818" points="611.3599,391.7578,601.3599,395.7578,611.3599,399.7578,607.3599,395.7578" style="stroke:#181818;stroke-width:1;"/><line style="stroke:#181818;stroke-width:1;stroke-dasharray:2.0,2.0;" x1="605.3599" x2="929.9707" y1="395.7578" y2="395.7578"/><text fill="#000000" font-family="sans-serif" font-size="13" lengthAdjust="spacing" textLength="306.6108" x="617.3599" y="390.6919">Respond with verification url, id and expires_at</text></g><path d="M435,408.7578 L435,569.7578 L594,569.7578 L594,418.7578 L584,408.7578 L435,408.7578" fill="#FEFFDD" style="stroke:#181818;stroke-width:0.5;"/><path d="M584,408.7578 L584,418.7578 L594,418.7578 L584,408.7578" fill="#FEFFDD" style="stroke:#181818;stroke-width:0.5;"/><text fill="#000000" font-family="sans-serif" font-size="13" lengthAdjust="spacing" textLength="67.3994" x="441" y="425.8247">Response:</text><text fill="#000000" font-family="sans-serif" font-size="13" lengthAdjust="spacing" textLength="20.687" x="441" y="440.9575">- id</text><text fill="#000000" font-family="sans-serif" font-size="13" lengthAdjust="spacing" textLength="44.6748" x="441" y="456.0903">- email</text><text fill="#000000" font-family="sans-serif" font-size="13" lengthAdjust="spacing" textLength="83.313" x="441" y="471.2231">- redirect_url</text><text fill="#000000" font-family="sans-serif" font-size="13" lengthAdjust="spacing" textLength="114.7783" x="441" y="486.356">- status (Created)</text><text fill="#000000" font-family="sans-serif" font-size="13" lengthAdjust="spacing" textLength="138.3789" x="441" y="501.4888">- verification_method</text><text fill="#000000" font-family="sans-serif" font-size="13" lengthAdjust="spacing" textLength="78.1904" x="441" y="516.6216">- created_at</text><text fill="#000000" font-family="sans-serif" font-size="13" lengthAdjust="spacing" textLength="76.0576" x="441" y="531.7544">- expires_at</text><text fill="#000000" font-family="sans-serif" font-size="13" lengthAdjust="spacing" textLength="85.4204" x="441" y="546.8872">- workflow_id</text><text fill="#000000" font-family="sans-serif" font-size="13" lengthAdjust="spacing" textLength="81.1357" x="441" y="562.02">- external_id</text><g class="message" data-participant-1="VYI" data-participant-2="User"><polygon fill="#181818" points="86.1616,592.2188,76.1616,596.2188,86.1616,600.2188,82.1616,596.2188" style="stroke:#181818;stroke-width:1;"/><line style="stroke:#181818;stroke-width:1;" x1="80.1616" x2="599.3599" y1="596.2188" y2="596.2188"/><text fill="#000000" font-family="sans-serif" font-size="13" lengthAdjust="spacing" textLength="230.604" x="92.1616" y="591.1528">Redirect Browser to Vouchsafe URL</text></g><g class="message" data-participant-1="User" data-participant-2="Vouchsafe"><polygon fill="#181818" points="918.9707,621.3516,928.9707,625.3516,918.9707,629.3516,922.9707,625.3516" style="stroke:#181818;stroke-width:1;"/><line style="stroke:#181818;stroke-width:1;" x1="75.1616" x2="924.9707" y1="625.3516" y2="625.3516"/><text fill="#000000" font-family="sans-serif" font-size="13" lengthAdjust="spacing" textLength="154.9019" x="82.1616" y="620.2856">Begin vouching process</text></g><rect fill="#EEEEEE" height="3" style="stroke:#EEEEEE;stroke-width:1;" width="1423.5352" x="0" y="653.918"/><line style="stroke:#000000;stroke-width:1;" x1="0" x2="1423.5352" y1="653.918" y2="653.918"/><line style="stroke:#000000;stroke-width:1;" x1="0" x2="1423.5352" y1="656.918" y2="656.918"/><rect fill="#EEEEEE" height="23.1328" style="stroke:#000000;stroke-width:2;" width="203.1602" x="610.1875" y="643.3516"/><text fill="#000000" font-family="sans-serif" font-size="13" font-weight="bold" lengthAdjust="spacing" textLength="184.6343" x="616.1875" y="659.4185">User Verification Process</text><g class="message" data-participant-1="Vouchsafe" data-participant-2="Vouchsafe"><line style="stroke:#181818;stroke-width:1;" x1="930.9707" x2="972.9707" y1="697.6172" y2="697.6172"/><line style="stroke:#181818;stroke-width:1;" x1="972.9707" x2="972.9707" y1="697.6172" y2="710.6172"/><line style="stroke:#181818;stroke-width:1;" x1="931.9707" x2="972.9707" y1="710.6172" y2="710.6172"/><polygon fill="#181818" points="941.9707,706.6172,931.9707,710.6172,941.9707,714.6172,937.9707,710.6172" style="stroke:#181818;stroke-width:1;"/><text fill="#000000" font-family="sans-serif" font-size="13" lengthAdjust="spacing" textLength="159.3008" x="937.9707" y="692.5513">Process user verification</text></g><g class="message" data-participant-1="Vouchsafe" data-participant-2="VYI"><polygon fill="#181818" points="611.3599,746.3164,601.3599,750.3164,611.3599,754.3164,607.3599,750.3164" style="stroke:#181818;stroke-width:1;"/><line style="stroke:#181818;stroke-width:1;" x1="605.3599" x2="929.9707" y1="750.3164" y2="750.3164"/><text fill="#000000" font-family="sans-serif" font-size="13" lengthAdjust="spacing" textLength="286.9648" x="617.3599" y="745.2505">(Optional Webhook alert for status updates)</text></g><path d="M935,723.6172 L935,763.6172 L1136,763.6172 L1136,733.6172 L1126,723.6172 L935,723.6172" fill="#FEFFDD" style="stroke:#181818;stroke-width:0.5;"/><path d="M1126,723.6172 L1126,733.6172 L1136,733.6172 L1126,723.6172" fill="#FEFFDD" style="stroke:#181818;stroke-width:0.5;"/><text fill="#000000" font-family="sans-serif" font-size="13" lengthAdjust="spacing" textLength="171.7104" x="941" y="740.6841">Webhook will not be used.</text><text fill="#000000" font-family="sans-serif" font-size="13" lengthAdjust="spacing" textLength="180.6987" x="941" y="755.8169">Polling will be used instead.</text><rect fill="#EEEEEE" height="3" style="stroke:#EEEEEE;stroke-width:1;" width="1423.5352" x="0" y="789.4492"/><line style="stroke:#000000;stroke-width:1;" x1="0" x2="1423.5352" y1="789.4492" y2="789.4492"/><line style="stroke:#000000;stroke-width:1;" x1="0" x2="1423.5352" y1="792.4492" y2="792.4492"/><rect fill="#EEEEEE" height="23.1328" style="stroke:#000000;stroke-width:2;" width="236.2378" x="593.6487" y="778.8828"/><text fill="#000000" font-family="sans-serif" font-size="13" font-weight="bold" lengthAdjust="spacing" textLength="217.7119" x="599.6487" y="794.9497">Polling for Verification Status</text><path d="M448,819.0156 L524.624,819.0156 L524.624,826.1484 L514.624,836.1484 L448,836.1484 L448,819.0156" fill="#EEEEEE" style="stroke:#000000;stroke-width:1.5;"/><rect fill="none" height="157.0625" style="stroke:#000000;stroke-width:1.5;" width="549.7705" x="448" y="819.0156"/><text fill="#000000" font-family="sans-serif" font-size="13" font-weight="bold" lengthAdjust="spacing" textLength="31.624" x="463" y="832.0825">loop</text><text fill="#000000" font-family="sans-serif" font-size="11" font-weight="bold" lengthAdjust="spacing" textLength="145.5942" x="539.624" y="831.2261">[Periodic Status Check]</text><g class="message" data-participant-1="VYI" data-participant-2="Vouchsafe"><polygon fill="#181818" points="918.9707,853.2813,928.9707,857.2813,918.9707,861.2813,922.9707,857.2813" style="stroke:#181818;stroke-width:1;"/><line style="stroke:#181818;stroke-width:1;" x1="600.3599" x2="924.9707" y1="857.2813" y2="857.2813"/><text fill="#000000" font-family="sans-serif" font-size="13" lengthAdjust="spacing" textLength="161.0527" x="607.3599" y="852.2153">Check verification status</text></g><g class="message" data-participant-1="Vouchsafe" data-participant-2="VYI"><polygon fill="#181818" points="611.3599,923.2461,601.3599,927.2461,611.3599,931.2461,607.3599,927.2461" style="stroke:#181818;stroke-width:1;"/><line style="stroke:#181818;stroke-width:1;stroke-dasharray:2.0,2.0;" x1="605.3599" x2="929.9707" y1="927.2461" y2="927.2461"/><text fill="#000000" font-family="sans-serif" font-size="13" lengthAdjust="spacing" textLength="128.7051" x="617.3599" y="922.1802">Return latest status</text></g><path d="M458,870.2813 L458,970.2813 L595,970.2813 L595,880.2813 L585,870.2813 L458,870.2813" fill="#FEFFDD" style="stroke:#181818;stroke-width:0.5;"/><path d="M585,870.2813 L585,880.2813 L595,880.2813 L585,870.2813" fill="#FEFFDD" style="stroke:#181818;stroke-width:0.5;"/><text fill="#000000" font-family="sans-serif" font-size="13" lengthAdjust="spacing" textLength="116.0415" x="464" y="887.3481">Possible statuses:</text><text fill="#000000" font-family="sans-serif" font-size="13" lengthAdjust="spacing" textLength="60.5566" x="464" y="902.481">- Created</text><text fill="#000000" font-family="sans-serif" font-size="13" lengthAdjust="spacing" textLength="109.3574" x="464" y="917.6138">- UserCompleted</text><text fill="#000000" font-family="sans-serif" font-size="13" lengthAdjust="spacing" textLength="59.1094" x="464" y="932.7466">- Verified</text><text fill="#000000" font-family="sans-serif" font-size="13" lengthAdjust="spacing" textLength="61.6929" x="464" y="947.8794">- Refused</text><text fill="#000000" font-family="sans-serif" font-size="13" lengthAdjust="spacing" textLength="39.7681" x="464" y="963.0122">- Alert</text><rect fill="#EEEEEE" height="3" style="stroke:#EEEEEE;stroke-width:1;" width="1423.5352" x="0" y="1003.6445"/><line style="stroke:#000000;stroke-width:1;" x1="0" x2="1423.5352" y1="1003.6445" y2="1003.6445"/><line style="stroke:#000000;stroke-width:1;" x1="0" x2="1423.5352" y1="1006.6445" y2="1006.6445"/><rect fill="#EEEEEE" height="23.1328" style="stroke:#000000;stroke-width:2;" width="202.5508" x="610.4922" y="993.0781"/><text fill="#000000" font-family="sans-serif" font-size="13" font-weight="bold" lengthAdjust="spacing" textLength="184.0249" x="616.4922" y="1009.145">Status Check Completion</text><path d="M10,1033.2109 L74.4429,1033.2109 L74.4429,1040.3438 L64.4429,1050.3438 L10,1050.3438 L10,1033.2109" fill="#EEEEEE" style="stroke:#000000;stroke-width:1.5;"/><rect fill="none" height="90.2031" style="stroke:#000000;stroke-width:1.5;" width="693.8516" x="10" y="1033.2109"/><text fill="#000000" font-family="sans-serif" font-size="13" font-weight="bold" lengthAdjust="spacing" textLength="19.4429" x="25" y="1046.2778">alt</text><text fill="#000000" font-family="sans-serif" font-size="11" font-weight="bold" lengthAdjust="spacing" textLength="105.4561" x="89.4429" y="1045.4214">[User is Verified]</text><g class="message" data-participant-1="VYI" data-participant-2="User"><polygon fill="#181818" points="86.1616,1067.4766,76.1616,1071.4766,86.1616,1075.4766,82.1616,1071.4766" style="stroke:#181818;stroke-width:1;"/><line style="stroke:#181818;stroke-width:1;" x1="80.1616" x2="599.3599" y1="1071.4766" y2="1071.4766"/><text fill="#000000" font-family="sans-serif" font-size="13" lengthAdjust="spacing" textLength="376.2319" x="92.1616" y="1066.4106">Send email notification to login and complete the process</text></g><line style="stroke:#000000;stroke-width:1;stroke-dasharray:2.0,2.0;" x1="10" x2="703.8516" y1="1080.4766" y2="1080.4766"/><text fill="#000000" font-family="sans-serif" font-size="11" font-weight="bold" lengthAdjust="spacing" textLength="106.8257" x="15" y="1090.687">[User is Refused]</text><g class="message" data-participant-1="VYI" data-participant-2="User"><polygon fill="#181818" points="86.1616,1111.4141,76.1616,1115.4141,86.1616,1119.4141,82.1616,1115.4141" style="stroke:#181818;stroke-width:1;"/><line style="stroke:#181818;stroke-width:1;" x1="80.1616" x2="599.3599" y1="1115.4141" y2="1115.4141"/><text fill="#000000" font-family="sans-serif" font-size="13" lengthAdjust="spacing" textLength="376.2319" x="92.1616" y="1110.3481">Send email notification to login and complete the process</text></g><rect fill="#EEEEEE" height="3" style="stroke:#EEEEEE;stroke-width:1;" width="1423.5352" x="0" y="1150.9805"/><line style="stroke:#000000;stroke-width:1;" x1="0" x2="1423.5352" y1="1150.9805" y2="1150.9805"/><line style="stroke:#000000;stroke-width:1;" x1="0" x2="1423.5352" y1="1153.9805" y2="1153.9805"/><rect fill="#EEEEEE" height="23.1328" style="stroke:#000000;stroke-width:2;" width="257.7437" x="582.8958" y="1140.4141"/><text fill="#000000" font-family="sans-serif" font-size="13" font-weight="bold" lengthAdjust="spacing" textLength="239.2178" x="588.8958" y="1156.481">User Shares Verified Credentials</text><g class="message" data-participant-1="User" data-participant-2="ScotAccount"><polygon fill="#181818" points="1092.2715,1190.6797,1102.2715,1194.6797,1092.2715,1198.6797,1096.2715,1194.6797" style="stroke:#181818;stroke-width:1;"/><line style="stroke:#181818;stroke-width:1;" x1="75.1616" x2="1098.2715" y1="1194.6797" y2="1194.6797"/><text fill="#000000" font-family="sans-serif" font-size="13" lengthAdjust="spacing" textLength="282.8452" x="82.1616" y="1189.6138">Return to ScotAccount to complete process</text></g><path d="M80,1207.6797 L80,1247.6797 L291,1247.6797 L291,1217.6797 L281,1207.6797 L80,1207.6797" fill="#FEFFDD" style="stroke:#181818;stroke-width:0.5;"/><path d="M281,1207.6797 L281,1217.6797 L291,1217.6797 L281,1207.6797" fill="#FEFFDD" style="stroke:#181818;stroke-width:0.5;"/><text fill="#000000" font-family="sans-serif" font-size="13" lengthAdjust="spacing" textLength="186.5767" x="86" y="1224.7466">User logs in and shares their</text><text fill="#000000" font-family="sans-serif" font-size="13" lengthAdjust="spacing" textLength="129.3906" x="86" y="1239.8794">verified credentials.</text><g class="message" data-participant-1="ScotAccount" data-participant-2="RP"><polygon fill="#181818" points="1336.1797,1270.0781,1346.1797,1274.0781,1336.1797,1278.0781,1340.1797,1274.0781" style="stroke:#181818;stroke-width:1;"/><line style="stroke:#181818;stroke-width:1;" x1="1104.2715" x2="1342.1797" y1="1274.0781" y2="1274.0781"/><text fill="#000000" font-family="sans-serif" font-size="13" lengthAdjust="spacing" textLength="219.9082" x="1111.2715" y="1269.0122">Share verified credentials with RP</text></g><!--SRC=[hLLDR-8m4BtxLumuWRJq1qHYfPPUAgsqKL2xwWcPP20M9ixQ3fH_lpDsFfosnptXZ9zdtfjvDhBqniBYrQ65vPCrDrgi5Y0TS4YqqdfLgbOs7XPlxo-mV4EhZdTuDvs5bmeRh_mz7g3jJtZJbRMJHuJ7_2L2XiWSk2kDVonBqpK-m9BlER10VLVD2N8Atc5PvB5oaGknsGJ6a5jpQJrMS2HTWQmgfLUcWSr61CJw9rFDW2gWSt1DCQqr71GibN2Cp-1PkLRBErneHvum8sMn2NTkWkgR08SxSJapFMSkQ1e4R-3AYWCN0Zyin9p2Lglo38kjeGnD5mwCBLe4JLCFPrgs5aTHFTSHcK61VpjqVYxjgYJFGJJ68rXrgZsOOpAHP-abEDAIYJNWHIfDlpTZpqTjRdjLqPV5Ibai_Rwp6fQcvRnIhmGs5N1Q8IQwwq5ZWQur1BWfNyyPKPOVr3wGj8iVBQLsU-aZGOt7o8zC5JCuP6A1ny0kvKEVpalVELY6vc2reb1QRtz1Nni-NqO05rkdbJ_hnG-FbXJoLw8nzKRHKu3-xin62A_5hsdWqtoUyAIQQ0ssos2wqSEpKUTnDqnwwkuitm3f-70g-TC97iVoTpys-8E7sfWpI8tM1uls3UpQYjhZLebLn02-AQsv3t10BbSzYDnepIh2JXy5rJYFadQdjf6u0VhbQkvYOPAeZMaXfprJgNA8RsiipmBWgzF3pjnLKGIZl_EYxsm3ckNv2JawZjQvSKuTDFQxw38Ahg7tL5ZpZBRqocWS8b5C_r7WaNiGre_SMrgDRU05QmpzIEL1dx6_r5Bxw0Nbqkmpx-quMRWBd7lg05bG6tOONwoo9mg-nj5fg1sEwIU-_ojxKqrUtjMIRjUeWHiP7aofNVeY9q_-E2Qgb8JvSomtb9e_Pk4lAsGaXWvwZYuo88RAWhWEHCg9I6hJj2BnAl8iIe3l3iP7hSZ_0G00]--></g></svg>